<?xml version="1.0" encoding="UTF-8" standalone="no"?>
<!-- Created with Inkscape (http://www.inkscape.org/) -->

<svg
   width="179.08351"
   height="75.609749"
   viewBox="0 0 179.08351 75.609749"
   version="1.1"
   id="SVGRoot"
   xmlns:xlink="http://www.w3.org/1999/xlink"
   xmlns="http://www.w3.org/2000/svg"
   xmlns:svg="http://www.w3.org/2000/svg">
  <defs
     id="defs2086">
    <linearGradient
       id="linearGradient14566">
      <stop
         style="stop-color:#198754;stop-opacity:1;"
         offset="0"
         id="stop14562" />
      <stop
         style="stop-color:#198754;stop-opacity:1;"
         offset="1"
         id="stop14564" />
    </linearGradient>
    <linearGradient
       id="linearGradient4170">
      <stop
         style="stop-color:#828a90;stop-opacity:1;"
         offset="0"
         id="stop4166" />
      <stop
         style="stop-color:#6c757d;stop-opacity:1;"
         offset="1"
         id="stop4168" />
    </linearGradient>
    <linearGradient
       xlink:href="#linearGradient4170"
       id="linearGradient4172"
       x1="182.25174"
       y1="128.90623"
       x2="182.25174"
       y2="186.98602"
       gradientUnits="userSpaceOnUse"
       gradientTransform="matrix(-1,0,0,0.57484536,415.4868,42.883189)" />
    <linearGradient
       xlink:href="#linearGradient14566"
       id="linearGradient14560"
       gradientUnits="userSpaceOnUse"
       gradientTransform="matrix(1,0,0,0.57484536,109.60155,82.834722)"
       x1="182.25174"
       y1="128.90623"
       x2="182.25174"
       y2="186.98602" />
  </defs>
  <g
     id="layer1"
     transform="translate(-173.00243,-118.07481)">
    <rect
       style="display:none;fill:#343a40;fill-opacity:1;stroke:none;stroke-width:3.77953;stroke-linecap:round;stroke-linejoin:round;stroke-miterlimit:10;paint-order:fill markers stroke"
       id="rect2944"
       width="800.27094"
       height="599.31134"
       x="-1.1891098"
       y="0" />
    <path
       id="rect3415"
       style="fill:url(#linearGradient4172);fill-opacity:1;stroke:none;stroke-width:2.86488;stroke-linecap:round;stroke-linejoin:round;stroke-miterlimit:10;stroke-dasharray:none;paint-order:fill markers stroke"
       d="m 272.49657,118.07481 c 6.09399,0 11,4.90601 11,11 v 8.75977 c 0,6.09399 -4.90601,11 -11,11 h -77.88672 c -0.48948,0 -0.96723,-0.0421 -1.43946,-0.10352 l -20.16797,5.00196 11.36133,-11.91016 c -0.47942,-1.23697 -0.7539,-2.57797 -0.7539,-3.98828 v -8.75977 c 0,-6.09399 4.906,-11 11,-11 z" />
    <path
       id="path14558"
       style="fill:url(#linearGradient14560);fill-opacity:1;stroke:none;stroke-width:2.86488;stroke-linecap:round;stroke-linejoin:round;stroke-miterlimit:10;stroke-dasharray:none;paint-order:fill markers stroke"
       d="m 252.59178,158.02635 c -6.09399,0 -11,4.90601 -11,11 v 8.75977 c 0,6.09399 4.90601,11 11,11 h 77.88672 c 0.48948,0 0.96723,-0.0421 1.43946,-0.10352 l 20.16797,5.00196 -11.36133,-11.91016 c 0.47942,-1.23697 0.7539,-2.57797 0.7539,-3.98828 v -8.75977 c 0,-6.09399 -4.906,-11 -11,-11 z" />
    <g
       aria-label="Chats"
       id="text14622"
       style="font-size:18.6667px;font-family:'Bebas Neue';-inkscape-font-specification:'Bebas Neue, Normal';text-align:center;text-anchor:middle;fill:#ffffff;stroke-width:2.86488;stroke-linecap:round;stroke-linejoin:round;stroke-miterlimit:10;paint-order:fill markers stroke">
      <path
         d="m 221.82143,135.74033 q -0.20052,2.12371 -1.56771,3.31772 -1.36719,1.1849 -3.63672,1.1849 -1.58594,0 -2.79818,-0.7474 -1.20313,-0.75651 -1.85938,-2.14193 -0.65625,-1.38542 -0.6836,-3.21746 v -1.23958 q 0,-1.87761 0.66537,-3.3086 0.66536,-1.43099 1.90495,-2.20573 1.2487,-0.77475 2.88021,-0.77475 2.19662,0 3.53647,1.19402 1.33984,1.19401 1.55859,3.3724 h -2.29688 q -0.16406,-1.43099 -0.83854,-2.0599 -0.66536,-0.63802 -1.95964,-0.63802 -1.50391,0 -2.31511,1.10286 -0.80208,1.09376 -0.82031,3.21746 v 1.17578 q 0,2.15105 0.76563,3.28126 0.77474,1.13021 2.26042,1.13021 1.35807,0 2.04167,-0.61068 0.68359,-0.61068 0.86588,-2.03256 z"
         style="font-weight:500;font-family:Roboto;-inkscape-font-specification:'Roboto, Medium'"
         id="path405" />
      <path
         d="m 225.85009,131.27418 q 1.08463,-1.25782 2.74349,-1.25782 3.15365,0 3.19923,3.60027 v 6.44402 h -2.21485 v -6.36199 q 0,-1.02083 -0.44662,-1.4401 -0.4375,-0.42839 -1.29427,-0.42839 -1.33073,0 -1.98698,1.1849 v 7.04558 h -2.21485 v -14.00002 h 2.21485 z"
         style="font-weight:500;font-family:Roboto;-inkscape-font-specification:'Roboto, Medium'"
         id="path402" />
      <path
         d="m 239.92303,140.06065 q -0.14583,-0.28255 -0.25521,-0.92057 -1.05729,1.10287 -2.58855,1.10287 -1.48568,0 -2.42448,-0.84766 -0.9388,-0.84766 -0.9388,-2.09636 0,-1.57683 1.16667,-2.41537 1.17578,-0.84766 3.35417,-0.84766 h 1.35807 v -0.64713 q 0,-0.76563 -0.42838,-1.22136 -0.42839,-0.46484 -1.30339,-0.46484 -0.75651,0 -1.23959,0.38281 -0.48307,0.3737 -0.48307,0.95703 h -2.21485 q 0,-0.8112 0.53776,-1.51302 0.53777,-0.71094 1.45834,-1.11198 0.92969,-0.40105 2.06901,-0.40105 1.73178,0 2.76173,0.87501 1.02995,0.86588 1.05729,2.44271 v 4.44792 q 0,1.33074 0.3737,2.12371 v 0.15494 z m -2.4336,-1.59505 q 0.65625,0 1.23047,-0.31901 0.58334,-0.31901 0.875,-0.85677 v -1.85938 h -1.19401 q -1.23047,0 -1.85026,0.42838 -0.6198,0.42839 -0.6198,1.21224 0,0.63803 0.41928,1.02084 0.42838,0.3737 1.13932,0.3737 z"
         style="font-weight:500;font-family:Roboto;-inkscape-font-specification:'Roboto, Medium'"
         id="path399" />
      <path
         d="m 246.90481,127.80152 v 2.39714 h 1.74089 v 1.64062 h -1.74089 v 5.50522 q 0,0.56511 0.21875,0.82032 0.22787,0.24609 0.80209,0.24609 0.38281,0 0.77474,-0.0911 v 1.71354 q -0.75651,0.20964 -1.45834,0.20964 -2.55208,0 -2.55208,-2.81642 v -5.58725 h -1.6224 v -1.64062 h 1.6224 v -2.39714 z"
         style="font-weight:500;font-family:Roboto;-inkscape-font-specification:'Roboto, Medium'"
         id="path396" />
      <path
         d="m 255.86446,137.38096 q 0,-0.59245 -0.49219,-0.90234 -0.48307,-0.3099 -1.61328,-0.54688 -1.13021,-0.23698 -1.88672,-0.60156 -1.65886,-0.80209 -1.65886,-2.32423 0,-1.27604 1.07552,-2.13281 1.07553,-0.85678 2.73438,-0.85678 1.76824,0 2.85287,0.87501 1.09376,0.875 1.09376,2.26953 h -2.21485 q 0,-0.63802 -0.47396,-1.05729 -0.47396,-0.42839 -1.25782,-0.42839 -0.72916,0 -1.19401,0.33724 -0.45573,0.33724 -0.45573,0.90235 0,0.51042 0.42839,0.79297 0.42838,0.28255 1.73177,0.57422 1.30339,0.28255 2.04167,0.68359 0.7474,0.39193 1.10287,0.94792 0.36458,0.55599 0.36458,1.34896 0,1.33073 -1.10286,2.16016 -1.10287,0.82032 -2.88933,0.82032 -1.21224,0 -2.16016,-0.43751 -0.94792,-0.4375 -1.47657,-1.20312 -0.52864,-0.76563 -0.52864,-1.64974 h 2.15104 q 0.0456,0.78385 0.59245,1.21224 0.54688,0.41927 1.44922,0.41927 0.875,0 1.33073,-0.32813 0.45573,-0.33724 0.45573,-0.875 z"
         style="font-weight:500;font-family:Roboto;-inkscape-font-specification:'Roboto, Medium'"
         id="path393" />
    </g>
    <g
       aria-label="App"
       id="text14787"
       style="font-size:18.6667px;font-family:'Bebas Neue';-inkscape-font-specification:'Bebas Neue, Normal';text-align:center;text-anchor:middle;fill:#ffffff;stroke-width:2.86488;stroke-linecap:round;stroke-linejoin:round;stroke-miterlimit:10;paint-order:fill markers stroke">
      <path
         d="m 283.77538,175.16015 h -5.14064 l -1.07552,3.08985 h -2.39714 l 5.01303,-13.27086 h 2.06901 l 5.02215,13.27086 h -2.40626 z m -4.4935,-1.85938 h 3.84636 l -1.92318,-5.50522 z"
         style="font-weight:500;font-family:Roboto;-inkscape-font-specification:'Roboto, Medium'"
         id="path390" />
      <path
         d="m 296.75457,173.41926 q 0,2.28777 -1.03907,3.65496 -1.03906,1.35807 -2.78907,1.35807 -1.62239,0 -2.59766,-1.06641 v 4.67579 h -2.21484 V 168.388 h 2.04167 l 0.0911,1.00261 q 0.97526,-1.1849 2.65235,-1.1849 1.80469,0 2.82553,1.34896 1.02995,1.33985 1.02995,3.72787 z m -2.20574,-0.1914 q 0,-1.47657 -0.59245,-2.34246 -0.58333,-0.86588 -1.67708,-0.86588 -1.35808,0 -1.95053,1.12109 v 4.37501 q 0.60157,1.14844 1.96876,1.14844 1.05729,0 1.64974,-0.84766 0.60156,-0.85677 0.60156,-2.58854 z"
         style="font-weight:500;font-family:Roboto;-inkscape-font-specification:'Roboto, Medium'"
         id="path387" />
      <path
         d="m 307.2637,173.41926 q 0,2.28777 -1.03907,3.65496 -1.03906,1.35807 -2.78906,1.35807 -1.6224,0 -2.59766,-1.06641 v 4.67579 h -2.21485 V 168.388 h 2.04167 l 0.0911,1.00261 q 0.97527,-1.1849 2.65235,-1.1849 1.80469,0 2.82553,1.34896 1.02995,1.33985 1.02995,3.72787 z m -2.20573,-0.1914 q 0,-1.47657 -0.59245,-2.34246 -0.58334,-0.86588 -1.67709,-0.86588 -1.35807,0 -1.95052,1.12109 v 4.37501 q 0.60156,1.14844 1.96875,1.14844 1.05729,0 1.64974,-0.84766 0.60157,-0.85677 0.60157,-2.58854 z"
         style="font-weight:500;font-family:Roboto;-inkscape-font-specification:'Roboto, Medium'"
         id="path384" />
    </g>
  </g>
</svg>
